<svg xmlns="http://www.w3.org/2000/svg" aria-hidden="true" style="position:absolute;width:0;height:0;overflow:hidden">
<defs>
<symbol id="icon-password" viewBox="0 0 32 32"><path d="M16 1.28c-4.587 0-8.32 3.733-8.32 8.32v3.84H5.12a1.93 1.93 0 0 0-1.92 1.92v14.72A1.93 1.93 0 0 0 5.12 32h21.76a1.93 1.93 0 0 0 1.92-1.92V15.36a1.93 1.93 0 0 0-1.92-1.92h-2.56V9.6c0-4.587-3.733-8.32-8.32-8.32zm0 1.28a7.031 7.031 0 0 1 7.04 7.04v3.84H8.96V9.6A7.031 7.031 0 0 1 16 2.56zM5.12 14.72h21.76a.63.63 0 0 1 .64.64v14.72a.63.63 0 0 1-.64.64H5.12a.63.63 0 0 1-.64-.64V15.36a.63.63 0 0 1 .64-.64zm3.2 7.04a1.28 1.28 0 1 0 0 2.56 1.28 1.28 0 1 0 0-2.56zm5.12 0a1.28 1.28 0 1 0 0 2.56 1.28 1.28 0 1 0 0-2.56zm5.12 0a1.28 1.28 0 1 0 0 2.56 1.28 1.28 0 1 0 0-2.56zm5.12 0a1.28 1.28 0 1 0 0 2.56 1.28 1.28 0 1 0 0-2.56z"/></symbol>
<symbol id="icon-email" viewBox="0 0 32 32"><path d="M31.917 7.017a4.437 4.437 0 0 0-.922-1.949l.006.008a4.429 4.429 0 0 0-3.439-1.635H4.44A4.436 4.436 0 0 0 .088 7.017a4.182 4.182 0 0 0-.087.858V24.12c0 .623.132 1.222.368 1.763.219.516.541.983.933 1.375.096.096.195.188.299.275l.007.006a4.41 4.41 0 0 0 2.83 1.02h23.125a4.408 4.408 0 0 0 2.833-1.024 4.445 4.445 0 0 0 1.243-1.652v-.004a4.387 4.387 0 0 0 .363-1.759V7.88c0-.305-.03-.604-.087-.892l.005.029zm-29.01-.669a2.145 2.145 0 0 1 1.532-.636h23.122a2.137 2.137 0 0 1 1.722.858l.004.006-12.119 10.562a1.759 1.759 0 0 1-1.169.438c-.417 0-.83-.145-1.168-.438L2.716 6.571c.054-.078.12-.152.19-.223zM2.271 24.12V8.921l8.77 7.651-8.766 7.643c-.004-.029-.004-.062-.004-.095zm25.29 2.167H4.439c-.393 0-.76-.103-1.073-.285l9.249-8.06.863.751a3.839 3.839 0 0 0 5.054-.004l-.005.004.863-.751 9.245 8.06a2.144 2.144 0 0 1-1.074.285zm2.168-2.167c0 .033 0 .066-.004.095l-8.766-7.638 8.77-7.651v15.195z"/></symbol>
        <symbol id="icon-cross" viewBox="0 0 32 32">
            <path stroke-linejoin="round" stroke-linecap="round" stroke-miterlimit="4" stroke-width="3.4286"
                d="M24 8l-16 16M8 8l16 16"></path>
            <path stroke-linejoin="round" stroke-linecap="round" stroke-miterlimit="4" stroke-width="3.4286"
                d="M24 8l-16 16M8 8l16 16"></path>
        </symbol>

 <symbol id="icon-menu" viewBox="0 0 32 32">
            <path stroke-linejoin="round" stroke-linecap="round" stroke-miterlimit="4" stroke-width="2.2857"
                d="M22.667 13.333h-18.667"></path>
            <path stroke-linejoin="round" stroke-linecap="round" stroke-miterlimit="4" stroke-width="2.2857"
                d="M28 8h-24"></path>
            <path stroke-linejoin="round" stroke-linecap="round" stroke-miterlimit="4" stroke-width="2.2857"
                d="M28 18.667h-24"></path>
            <path stroke-linejoin="round" stroke-linecap="round" stroke-miterlimit="4" stroke-width="2.2857"
                d="M22.667 24h-18.667"></path>
        </symbol>
<symbol id="icon-delete" viewBox="0 0 32 32"><path fill="none" stroke="#fff" stroke-linecap="round" stroke-linejoin="round" stroke-width="3.2" d="M11.6 2.8h8.8M2.8 7.2h26.4m-2.933 0-1.029 15.429c-.155 2.314-.232 3.472-.731 4.349a4.433 4.433 0 0 1-1.878 1.771l-.026.012c-.91.44-2.069.44-4.389.44h-4.429c-2.32 0-3.478 0-4.389-.44A4.437 4.437 0 0 1 7.503 27l-.011-.021c-.499-.877-.576-2.035-.731-4.349L5.732 7.201m7.335 6.599v7.333m5.866-7.333v7.333" style="stroke:var(--color1, #fff)"/></symbol>
<symbol id="icon-user" viewBox="0 0 32 32"><path fill="#f6f6f6" d="M32 16c0 8.837-7.163 16-16 16S0 24.837 0 16 7.163 0 16 0s16 7.163 16 16z" style="fill:var(--color2, #f6f6f6)"/><path fill="#4f2ee8" d="M10.523 22.847a5.478 5.478 0 0 1 10.954-.005v.005H10.523zM16 16.685h-.001a4.107 4.107 0 0 1-4.107-4.107v-.002a4.107 4.107 0 0 1 4.107-4.107h.002a4.107 4.107 0 0 1 4.107 4.107v.002a4.107 4.107 0 0 1-4.107 4.107H16z" style="fill:var(--color3, #4f2ee8)"/></symbol>
<symbol id="icon-bag" viewBox="0 0 32 32"><path d="M26.37 8.592h-4.444V7.111a5.925 5.925 0 0 0-11.85 0v1.481H5.63a1.48 1.48 0 0 0-1.481 1.481V26.37a4.444 4.444 0 0 0 4.444 4.444h14.816a4.444 4.444 0 0 0 4.444-4.444V10.073a1.48 1.48 0 0 0-1.481-1.481h-.002zM13.036 7.111a2.964 2.964 0 1 1 5.928 0v1.481h-5.927V7.111zM24.889 26.37v.002a1.48 1.48 0 0 1-1.481 1.481H8.592a1.48 1.48 0 0 1-1.481-1.481V11.556h2.964v1.481a1.48 1.48 0 1 0 2.962 0v-1.481h5.927v1.481a1.48 1.48 0 1 0 2.962 0v-1.481h2.964V26.37z"/></symbol>
<symbol id="icon-threzub" viewBox="0 0 32 32"><path fill="#fff" d="M15.005 30.888a8.656 8.656 0 0 1-3.405-5.296l-.009-.055H6V2.42c2.991 1.443 5.153 4.6 5.388 7.876l.845 6.493-.407-.045c-.893 0-1.676.812-1.676 1.608 0 .752.595 1.383 1.379 1.548l1.018.226c1.675-3.051 2.63-6.042 2.63-8.973 0-2.646-.36-5.291-.422-7.997 0-1.202.485-2.3 1.253-3.156.783.857 1.253 1.954 1.253 3.156 0 2.706-.423 5.351-.423 7.997 0 2.93.955 5.922 2.631 8.973l1.018-.226c.783-.165 1.378-.811 1.378-1.548 0-.811-.783-1.608-1.675-1.608l-.423.06.845-6.493C21.035 7.034 23.01 3.863 26 2.435v23.117h-5.576c-.422 2.18-1.613 4.148-3.414 5.35-.423.286-.783.632-1.018 1.098-.22-.466-.58-.812-.987-1.112zM8.647 17.556c.235-.857.893-1.609 1.738-2.075l-.658-5.35a8.29 8.29 0 0 0-2.043-4.382l.007.008V17.54h.956v.015zm2.819 6.373c0-.812.125-1.548.298-2.3l-.784-.18c-1.143-.346-2.036-1.203-2.333-2.3H7.69v4.78h3.775zm3.712 0c0-.977-.783-1.834-1.801-1.954-.173.63-.298 1.262-.298 1.954h2.099zm0 1.623h-1.864c.298 1.262.955 2.42 1.864 3.397v-3.397zm2.63-5.005c-.72-1.263-1.377-2.585-1.8-3.968-.423 1.383-1.08 2.705-1.801 3.968.72.165 1.315.631 1.8 1.157.486-.526 1.082-.992 1.802-1.157zm1.144 3.382c0-.692-.125-1.323-.297-1.954-1.018.12-1.801.977-1.801 1.954h2.098zm-.235 1.623h-1.863v3.397c.908-.992 1.566-2.135 1.863-3.397zm5.623-1.623v-4.78h-.956c-.297 1.097-1.206 1.954-2.333 2.3l-.783.18c.172.752.297 1.488.297 2.3h3.775zm0-6.373v-11.8c-1.08 1.203-1.864 2.706-2.036 4.375l-.658 5.35c.846.466 1.504 1.203 1.738 2.075h.956z" style="fill:var(--color1, #fff)"/></symbol>
<symbol id="icon-arrow" viewBox="0 0 43 32"><path fill="none" stroke="#eac645" stroke-linecap="round" stroke-linejoin="round" stroke-width="5.333" d="M3.555 16h35.557m0 0L25.779 2.667M39.112 16 25.779 29.333" style="stroke:var(--color4, #eac645)"/></symbol>
<symbol id="icon-scrollup" viewBox="0 0 55 32"><path fill="#fff" style="fill: var(--color1, #fff)" d="M1.091 25.309l24.436-24.509c0.291-0.291 0.606-0.496 0.945-0.617 0.339-0.122 0.703-0.183 1.091-0.183s0.752 0.061 1.091 0.183c0.339 0.12 0.655 0.326 0.946 0.617l24.509 24.509c0.679 0.679 1.018 1.527 1.018 2.545s-0.364 1.891-1.091 2.618c-0.727 0.727-1.576 1.091-2.545 1.091s-1.818-0.364-2.545-1.091l-21.382-21.382-21.382 21.382c-0.679 0.679-1.515 1.018-2.508 1.018-0.995 0-1.856-0.364-2.583-1.091s-1.091-1.576-1.091-2.545c0-0.97 0.364-1.818 1.091-2.545z"></path></symbol>
</defs>
</svg>
