<svg xmlns="http://www.w3.org/2000/svg" aria-hidden="true" style="position:absolute;width:0;height:0;overflow:hidden">
<defs>
<symbol id="icon-close" viewBox="0 0 32 32"><path stroke-linecap="round" stroke-linejoin="round" stroke-width="5.333" d="M28.444 3.556 3.555 28.445m.001-24.889 24.889 24.889"/></symbol>
<symbol id="icon-menu-burger" viewBox="0 0 32 32"><path d="M0 2h32v4H0zm0 6h20v4H0zm0 12h20v4H0zm0-6h32v4H0zm0 12h32v4H0z"/></symbol>
<!-- <symbol id="icon-burger_menu" viewBox="0 0 32 32"><path stroke-linecap="round" stroke-linejoin="round" stroke-width="2.286" d="M22.666 13.334H4M28 8H4m24 10.666H4M22.666 24H4"/></symbol> -->
<symbol id="icon-delete" viewBox="0 0 32 32"><path fill="none" stroke="#fff" stroke-linecap="round" stroke-linejoin="round" stroke-width="3.2" d="M11.6 2.8h8.8M2.8 7.2h26.4m-2.933 0-1.029 15.429c-.155 2.314-.232 3.472-.731 4.349a4.433 4.433 0 0 1-1.878 1.771l-.026.012c-.91.44-2.069.44-4.389.44h-4.429c-2.32 0-3.478 0-4.389-.44A4.437 4.437 0 0 1 7.503 27l-.011-.021c-.499-.877-.576-2.035-.731-4.349L5.732 7.201m7.335 6.599v7.333m5.866-7.333v7.333" style="stroke:var(--color1, #fff)"/></symbol>
<symbol id="icon-user" viewBox="0 0 32 32"><path fill="#f6f6f6" d="M32 16c0 8.837-7.163 16-16 16S0 24.837 0 16 7.163 0 16 0s16 7.163 16 16z" style="fill:var(--color2, #f6f6f6)"/><path fill="#4f2ee8" d="M10.523 22.847a5.478 5.478 0 0 1 10.954-.005v.005H10.523zM16 16.685h-.001a4.107 4.107 0 0 1-4.107-4.107v-.002a4.107 4.107 0 0 1 4.107-4.107h.002a4.107 4.107 0 0 1 4.107 4.107v.002a4.107 4.107 0 0 1-4.107 4.107H16z" style="fill:var(--color3, #4f2ee8)"/></symbol>
<symbol id="icon-bag" viewBox="0 0 32 32"><path d="M26.37 8.592h-4.444V7.111a5.925 5.925 0 0 0-11.85 0v1.481H5.63a1.48 1.48 0 0 0-1.481 1.481V26.37a4.444 4.444 0 0 0 4.444 4.444h14.816a4.444 4.444 0 0 0 4.444-4.444V10.073a1.48 1.48 0 0 0-1.481-1.481h-.002zM13.036 7.111a2.964 2.964 0 1 1 5.928 0v1.481h-5.927V7.111zM24.889 26.37v.002a1.48 1.48 0 0 1-1.481 1.481H8.592a1.48 1.48 0 0 1-1.481-1.481V11.556h2.964v1.481a1.48 1.48 0 1 0 2.962 0v-1.481h5.927v1.481a1.48 1.48 0 1 0 2.962 0v-1.481h2.964V26.37z"/></symbol>
<symbol id="icon-email" viewBox="0 0 32 32"><path stroke-linecap="round" stroke-linejoin="round" stroke-width="2.462" d="M29.642 24.615 20.104 16m-8.206 0L2.36 24.615M1.641 8.821l11.724 8.207c.95.665 1.424.997 1.941 1.125.455.114.933.114 1.39 0 .516-.128.991-.46 1.94-1.125L30.36 8.821M8.533 27.487h14.934c2.412 0 3.618 0 4.54-.469a4.342 4.342 0 0 0 1.872-1.859l.011-.024c.468-.921.468-2.128.468-4.54v-9.189c0-2.412 0-3.618-.468-4.542a4.345 4.345 0 0 0-1.859-1.871l-.024-.011c-.922-.469-2.128-.469-4.542-.469H8.535c-2.412 0-3.618 0-4.542.469a4.345 4.345 0 0 0-1.871 1.859l-.011.024c-.47.921-.47 2.127-.47 4.54v9.189c0 2.412 0 3.618.47 4.542a4.345 4.345 0 0 0 1.859 1.871l.024.011c.921.469 2.127.469 4.54.469z"/></symbol>
<symbol id="icon-password" viewBox="0 0 32 32"><path stroke-linecap="round" stroke-linejoin="round" stroke-width="2.667" d="M23.777 14.444V9.777a7.777 7.777 0 0 0-15.554 0v4.667M9.467 30h13.067c2.613 0 3.92 0 4.919-.508a4.707 4.707 0 0 0 2.028-2.014l.012-.026c.508-.999.508-2.305.508-4.919v-.623c0-2.613 0-3.92-.508-4.919a4.707 4.707 0 0 0-2.014-2.028l-.026-.012c-.999-.507-2.305-.507-4.919-.507H9.467c-2.613 0-3.92 0-4.919.507a4.707 4.707 0 0 0-2.028 2.014l-.012.026C2 17.991 2 19.298 2 21.911v.621c0 2.613 0 3.92.508 4.919a4.707 4.707 0 0 0 2.014 2.028l.026.012c.999.508 2.305.508 4.919.508z"/></symbol>
<symbol id="icon-threzub" viewBox="0 0 32 32"><path fill="#fff" d="M15.005 30.888a8.656 8.656 0 0 1-3.405-5.296l-.009-.055H6V2.42c2.991 1.443 5.153 4.6 5.388 7.876l.845 6.493-.407-.045c-.893 0-1.676.812-1.676 1.608 0 .752.595 1.383 1.379 1.548l1.018.226c1.675-3.051 2.63-6.042 2.63-8.973 0-2.646-.36-5.291-.422-7.997 0-1.202.485-2.3 1.253-3.156.783.857 1.253 1.954 1.253 3.156 0 2.706-.423 5.351-.423 7.997 0 2.93.955 5.922 2.631 8.973l1.018-.226c.783-.165 1.378-.811 1.378-1.548 0-.811-.783-1.608-1.675-1.608l-.423.06.845-6.493C21.035 7.034 23.01 3.863 26 2.435v23.117h-5.576c-.422 2.18-1.613 4.148-3.414 5.35-.423.286-.783.632-1.018 1.098-.22-.466-.58-.812-.987-1.112zM8.647 17.556c.235-.857.893-1.609 1.738-2.075l-.658-5.35a8.29 8.29 0 0 0-2.043-4.382l.007.008V17.54h.956v.015zm2.819 6.373c0-.812.125-1.548.298-2.3l-.784-.18c-1.143-.346-2.036-1.203-2.333-2.3H7.69v4.78h3.775zm3.712 0c0-.977-.783-1.834-1.801-1.954-.173.63-.298 1.262-.298 1.954h2.099zm0 1.623h-1.864c.298 1.262.955 2.42 1.864 3.397v-3.397zm2.63-5.005c-.72-1.263-1.377-2.585-1.8-3.968-.423 1.383-1.08 2.705-1.801 3.968.72.165 1.315.631 1.8 1.157.486-.526 1.082-.992 1.802-1.157zm1.144 3.382c0-.692-.125-1.323-.297-1.954-1.018.12-1.801.977-1.801 1.954h2.098zm-.235 1.623h-1.863v3.397c.908-.992 1.566-2.135 1.863-3.397zm5.623-1.623v-4.78h-.956c-.297 1.097-1.206 1.954-2.333 2.3l-.783.18c.172.752.297 1.488.297 2.3h3.775zm0-6.373v-11.8c-1.08 1.203-1.864 2.706-2.036 4.375l-.658 5.35c.846.466 1.504 1.203 1.738 2.075h.956z" style="fill:var(--color1, #fff)"/></symbol>
<symbol id="icon-arrow" viewBox="0 0 43 32"><path fill="none" stroke="#eac645" stroke-linecap="round" stroke-linejoin="round" stroke-width="5.333" d="M3.555 16h35.557m0 0L25.779 2.667M39.112 16 25.779 29.333" style="stroke:var(--color4, #eac645)"/></symbol>
</defs>
</svg>
