<svg aria-hidden="true" style="position: absolute; width: 0; height: 0; overflow: hidden;" version="1.1" xmlns="http://www.w3.org/2000/svg" xmlns:xlink="http://www.w3.org/1999/xlink">
<defs>
<symbol id="icon-arrow_user" viewBox="0 0 60 32">
<path fill="#fff" style="fill: var(--color1, #fff)" d="M3.168 3h53.668l-24.124 27.268c-0.659 0.769-1.627 1.258-2.71 1.272l-0.002 0c-1.083-0.015-2.050-0.503-2.704-1.267l-0.004-0.005-24.124-27.268z"></path>
</symbol>
<symbol id="icon-burger_menu" viewBox="0 0 32 32">
<path stroke-linejoin="round" stroke-linecap="round" stroke-miterlimit="4" stroke-width="2.2857" d="M22.666 13.334h-18.666M28 8h-24M28 18.666h-24M22.666 24h-18.666"></path>
</symbol>
<symbol id="icon-threzub" viewBox="0 0 20 32">
<path fill="#fff" style="fill: var(--color1, #fff)" d="M9.005 30.888c-1.738-1.269-2.974-3.137-3.405-5.296l-0.009-0.055h-5.591v-23.117c2.991 1.443 5.153 4.6 5.388 7.876l0.845 6.493-0.407-0.045c-0.893 0-1.676 0.812-1.676 1.608 0 0.752 0.595 1.383 1.379 1.548l1.018 0.226c1.675-3.051 2.63-6.042 2.63-8.973 0-2.646-0.36-5.291-0.422-7.997 0-1.202 0.485-2.3 1.253-3.156 0.783 0.857 1.253 1.954 1.253 3.156 0 2.706-0.423 5.351-0.423 7.997 0 2.93 0.955 5.922 2.631 8.973l1.018-0.226c0.783-0.165 1.378-0.811 1.378-1.548 0-0.811-0.783-1.608-1.675-1.608l-0.423 0.060 0.845-6.493c0.423-3.277 2.398-6.448 5.388-7.876v23.117h-5.576c-0.422 2.18-1.613 4.148-3.414 5.35-0.423 0.286-0.783 0.632-1.018 1.098-0.22-0.466-0.58-0.812-0.987-1.112zM2.647 17.556c0.235-0.857 0.893-1.609 1.738-2.075l-0.658-5.35c-0.246-1.699-0.975-3.195-2.043-4.382l0.007 0.008v11.783h0.956v0.015zM5.466 23.929c0-0.812 0.125-1.548 0.298-2.3l-0.784-0.18c-1.143-0.346-2.036-1.203-2.333-2.3h-0.957v4.78h3.775zM9.178 23.929c0-0.977-0.783-1.834-1.801-1.954-0.173 0.63-0.298 1.262-0.298 1.954h2.099zM9.178 25.552h-1.864c0.298 1.262 0.955 2.42 1.864 3.397v-3.397zM11.808 20.547c-0.72-1.263-1.377-2.585-1.8-3.968-0.423 1.383-1.080 2.705-1.801 3.968 0.72 0.165 1.315 0.631 1.8 1.157 0.486-0.526 1.082-0.992 1.802-1.157zM12.952 23.929c0-0.692-0.125-1.323-0.297-1.954-1.018 0.12-1.801 0.977-1.801 1.954h2.098zM12.717 25.552h-1.863v3.397c0.908-0.992 1.566-2.135 1.863-3.397zM18.34 23.929v-4.78h-0.956c-0.297 1.097-1.206 1.954-2.333 2.3l-0.783 0.18c0.172 0.752 0.297 1.488 0.297 2.3h3.775zM18.34 17.556v-11.8c-1.080 1.203-1.864 2.706-2.036 4.375l-0.658 5.35c0.846 0.466 1.504 1.203 1.738 2.075h0.956z"></path>
</symbol>
<symbol id="icon-load_book" viewBox="0 0 35 32">
<path fill="#4f2ee8" style="fill: var(--color2, #4f2ee8)" d="M34.352 7.713c-0.653-0.349-1.43-0.687-2.235-0.966l-0.117-0.035v19.742c-1.663-0.641-3.587-1.014-5.598-1.018h-0.002c-3.040 0-6.048 0.886-8.8 2.592v-19.856c-2.592-1.526-5.584-2.428-8.8-2.428-2.864 0-5.568 0.722-7.952 1.97-0.528 0.262-0.848 0.836-0.848 1.443v19.824c-0 0.007-0 0.016-0 0.024 0 0.884 0.716 1.6 1.6 1.6 0 0 0 0 0 0v0c0.256 0 0.512-0.066 0.768-0.197 1.936-1.034 4.112-1.69 6.432-1.69 3.312 0 6.368 1.346 8.8 3.282 2.432-1.936 5.488-3.282 8.8-3.282 2.32 0 4.496 0.657 6.432 1.707 0.256 0.131 0.512 0.197 0.768 0.197 0.832 0 1.6-0.673 1.6-1.624v-19.84c0-0.608-0.32-1.182-0.848-1.445zM14.4 26.454c-1.663-0.641-3.587-1.014-5.598-1.018h-0.002c-1.904 0-3.776 0.344-5.6 1.018v-16.262c1.643-0.737 3.561-1.166 5.579-1.166 0.007 0 0.014 0 0.022 0h-0.001c1.92 0 3.824 0.41 5.6 1.182v16.246zM28.8 0l-8 8.205v15.59l8-7.385v-16.41z"></path>
</symbol>
<symbol id="icon-email" viewBox="0 0 38 32">
<path stroke-linejoin="round" stroke-linecap="round" stroke-miterlimit="4" stroke-width="2.9091" d="M35.031 26.182l-11.273-10.182M14.061 16l-11.273 10.182M1.939 7.516l13.856 9.699c1.123 0.785 1.683 1.178 2.294 1.329 0.538 0.135 1.103 0.135 1.642 0 0.609-0.151 1.171-0.544 2.292-1.329l13.856-9.699M10.084 29.575h17.649c2.851 0 4.276 0 5.366-0.554 0.963-0.498 1.728-1.263 2.212-2.197l0.013-0.028c0.553-1.088 0.553-2.515 0.553-5.366v-10.86c0-2.851 0-4.276-0.553-5.367-0.498-0.962-1.263-1.727-2.197-2.211l-0.028-0.013c-1.089-0.554-2.515-0.554-5.367-0.554h-17.645c-2.851 0-4.276 0-5.367 0.554-0.962 0.498-1.727 1.263-2.211 2.197l-0.013 0.028c-0.556 1.088-0.556 2.513-0.556 5.366v10.86c0 2.851 0 4.276 0.556 5.367 0.498 0.962 1.263 1.727 2.197 2.211l0.028 0.013c1.088 0.554 2.513 0.554 5.366 0.554z"></path>
</symbol>
<symbol id="icon-password" viewBox="0 0 32 32">
<path stroke-linejoin="round" stroke-linecap="round" stroke-miterlimit="4" stroke-width="2.6667" d="M23.777 14.444v-4.667c0-4.295-3.482-7.777-7.777-7.777s-7.777 3.482-7.777 7.777v0 4.667M9.467 30h13.067c2.613 0 3.92 0 4.919-0.508 0.882-0.456 1.584-1.158 2.028-2.014l0.012-0.026c0.508-0.999 0.508-2.305 0.508-4.919v-0.623c0-2.613 0-3.92-0.508-4.919-0.456-0.882-1.158-1.584-2.014-2.028l-0.026-0.012c-0.999-0.507-2.305-0.507-4.919-0.507h-13.067c-2.613 0-3.92 0-4.919 0.507-0.882 0.456-1.584 1.158-2.028 2.014l-0.012 0.026c-0.508 1-0.508 2.307-0.508 4.92v0.621c0 2.613 0 3.92 0.508 4.919 0.456 0.882 1.158 1.584 2.014 2.028l0.026 0.012c0.999 0.508 2.305 0.508 4.919 0.508z"></path>
</symbol>
<symbol id="icon-bag" viewBox="0 0 25 32">
<path d="M22.814 8.592h-4.444v-1.481c0-3.272-2.653-5.925-5.925-5.925s-5.925 2.653-5.925 5.925v0 1.481h-4.444c-0.001 0-0.001 0-0.002 0-0.818 0-1.481 0.663-1.481 1.481 0 0.001 0 0.001 0 0.002v-0 16.295c0 2.455 1.99 4.444 4.444 4.444v0h14.816c2.455 0 4.444-1.99 4.444-4.444v0-16.295c0-0.001 0-0.001 0-0.002 0-0.818-0.663-1.481-1.481-1.481-0.001 0-0.001 0-0.002 0h0zM9.481 7.111c0-1.637 1.327-2.964 2.964-2.964s2.964 1.327 2.964 2.964v1.481h-5.927v-1.481zM21.333 26.37c0 0.001 0 0.001 0 0.002 0 0.818-0.663 1.481-1.481 1.481h-14.816c-0.818 0-1.481-0.663-1.481-1.481 0-0.001 0-0.001 0-0.002v0-14.814h2.964v1.481c0 0.818 0.663 1.481 1.481 1.481s1.481-0.663 1.481-1.481v0-1.481h5.927v1.481c0 0.818 0.663 1.481 1.481 1.481s1.481-0.663 1.481-1.481v0-1.481h2.964v14.814z"></path>
</symbol>
<symbol id="icon-delete" viewBox="0 0 32 32">
<path fill="none" stroke="#fff" style="stroke: var(--color1, #fff)" stroke-linejoin="round" stroke-linecap="round" stroke-miterlimit="4" stroke-width="3.2" d="M11.6 2.8h8.8M2.8 7.2h26.4M26.267 7.2l-1.029 15.429c-0.155 2.314-0.232 3.472-0.731 4.349-0.446 0.773-1.096 1.385-1.878 1.771l-0.026 0.012c-0.91 0.44-2.069 0.44-4.389 0.44h-4.429c-2.32 0-3.478 0-4.389-0.44-0.808-0.398-1.458-1.009-1.893-1.761l-0.011-0.021c-0.499-0.877-0.576-2.035-0.731-4.349l-1.029-15.429M13.067 13.8v7.333M18.933 13.8v7.333"></path>
</symbol>
<symbol id="icon-user" viewBox="0 0 23 32">
<path fill="#4f2ee8" style="fill: var(--color2, #4f2ee8)" d="M0.297 30.964c0.112-6.132 5.11-11.060 11.259-11.060s11.146 4.928 11.258 11.050l0 0.011h-22.517zM11.556 18.297c-0.001 0-0.001 0-0.002 0-4.663 0-8.443-3.78-8.443-8.443 0-0.001 0-0.001 0-0.002v0c0-0.001 0-0.001 0-0.002 0-4.663 3.78-8.443 8.443-8.443 0.001 0 0.001 0 0.002 0h-0c0.001 0 0.001 0 0.002 0 4.663 0 8.443 3.78 8.443 8.443 0 0.001 0 0.001 0 0.002v-0c0 0.001 0 0.001 0 0.002 0 4.663-3.78 8.443-8.443 8.443-0.001 0-0.001 0-0.002 0h0z"></path>
</symbol>
<symbol id="icon-arrow" viewBox="0 0 43 32">
<path fill="none" stroke="#eac645" style="stroke: var(--color3, #eac645)" stroke-linejoin="round" stroke-linecap="round" stroke-miterlimit="4" stroke-width="5.3333" d="M3.555 16h35.557M39.112 16l-13.333-13.333M39.112 16l-13.333 13.333"></path>
</symbol>
<symbol id="icon-close" viewBox="0 0 32 32">
<path stroke-linejoin="round" stroke-linecap="round" stroke-miterlimit="4" stroke-width="5.3333" d="M28.444 3.556l-24.889 24.889M3.556 3.556l24.889 24.889"></path>
</symbol>
</defs>
</svg>
